<svg width="102" height="52" viewBox="0 0 102 52" fill="none" xmlns="http://www.w3.org/2000/svg">
<g clip-path="url(#clip0_2314_20776)">
<path d="M94.7879 0H7.21212C3.22898 0 0 3.25937 0 7.28V44.72C0 48.7406 3.22898 52 7.21212 52H94.7879C98.771 52 102 48.7406 102 44.72V7.28C102 3.25937 98.771 0 94.7879 0Z" fill="white" fill-opacity="0.9"/>
<path d="M20.6758 17.2432C22.5056 17.2432 24.1046 17.6176 25.4729 18.3664C26.8576 19.0985 27.9209 20.1302 28.6627 21.4614C29.4045 22.7926 29.7754 24.3152 29.7754 26.0291C29.7754 27.7264 29.3962 29.2406 28.6379 30.5718C27.8961 31.903 26.8329 32.9513 25.4481 33.7168C24.0799 34.4656 22.4891 34.84 20.6758 34.84H13.7769V17.2432H20.6758ZM20.3049 30.5219C21.7226 30.5219 22.8353 30.1308 23.643 29.3488C24.4508 28.5667 24.8547 27.4601 24.8547 26.0291C24.8547 24.5814 24.4508 23.4665 23.643 22.6844C22.8353 21.8857 21.7226 21.4864 20.3049 21.4864H18.6234V30.5219H20.3049ZM34.9027 19.5395C34.0454 19.5395 33.3531 19.3065 32.8256 18.8406C32.3145 18.358 32.059 17.759 32.059 17.0435C32.059 16.3113 32.3145 15.704 32.8256 15.2214C33.3531 14.7388 34.0454 14.4976 34.9027 14.4976C35.7434 14.4976 36.4193 14.7388 36.9303 15.2214C37.4578 15.704 37.7216 16.3113 37.7216 17.0435C37.7216 17.759 37.4578 18.358 36.9303 18.8406C36.4193 19.3065 35.7434 19.5395 34.9027 19.5395ZM37.3012 20.8374V34.84H32.4547V20.8374H37.3012ZM49.6306 20.7126C51.2297 20.7126 52.4989 21.2534 53.4386 22.335C54.3782 23.4 54.848 24.8476 54.848 26.678V34.84H50.0015V27.327C50.0015 26.5283 49.7955 25.9043 49.3834 25.455C48.9712 24.9891 48.419 24.7561 47.7266 24.7561C47.0013 24.7561 46.4326 24.9891 46.0204 25.455C45.6083 25.9043 45.4023 26.5283 45.4023 27.327V34.84H40.5557V20.8374H45.4023V22.8342C45.8309 22.2019 46.4078 21.6944 47.1332 21.3116C47.8585 20.9123 48.691 20.7126 49.6306 20.7126Z" fill="#3676BC"/>
<path d="M62.8864 20.6627C63.826 20.6627 64.642 20.8541 65.3344 21.2368C66.0432 21.6195 66.5872 22.1354 66.9664 22.7843V20.8374H71.8129V34.6902C71.8129 36.0048 71.5657 37.1862 71.0711 38.2346C70.5766 39.2995 69.8018 40.1482 68.7467 40.7805C67.7082 41.4128 66.3894 41.729 64.7904 41.729C62.6473 41.729 60.9329 41.2214 59.6471 40.2064C58.3613 39.1914 57.6277 37.8102 57.4464 36.063H62.2187C62.3177 36.5123 62.5649 36.8618 62.9606 37.1114C63.3562 37.361 63.8672 37.4858 64.4937 37.4858C66.1421 37.4858 66.9664 36.5539 66.9664 34.6902V32.8931C66.5872 33.5421 66.0432 34.0579 65.3344 34.4406C64.642 34.8234 63.826 35.0147 62.8864 35.0147C61.7819 35.0147 60.7763 34.7235 59.8697 34.1411C58.9795 33.5587 58.2706 32.7267 57.7431 31.6451C57.2321 30.5469 56.9766 29.2739 56.9766 27.8262C56.9766 26.3786 57.2321 25.1139 57.7431 24.0323C58.2706 22.9507 58.9795 22.1187 59.8697 21.5363C60.7763 20.9539 61.7819 20.6627 62.8864 20.6627ZM66.9664 27.8262C66.9664 26.9277 66.7191 26.2205 66.2246 25.7046C65.7465 25.1888 65.153 24.9309 64.4442 24.9309C63.7189 24.9309 63.1172 25.1888 62.6391 25.7046C62.161 26.2038 61.922 26.911 61.922 27.8262C61.922 28.7248 62.161 29.4403 62.6391 29.9728C63.1172 30.4886 63.7189 30.7466 64.4442 30.7466C65.153 30.7466 65.7465 30.4886 66.2246 29.9728C66.7191 29.457 66.9664 28.7414 66.9664 27.8262ZM81.523 35.0147C80.1383 35.0147 78.8937 34.7235 77.7892 34.1411C76.7012 33.5587 75.844 32.7267 75.2176 31.6451C74.5911 30.5635 74.2779 29.2906 74.2779 27.8262C74.2779 26.3786 74.5911 25.1139 75.2176 24.0323C75.8605 22.9507 76.7259 22.1187 77.8139 21.5363C78.9184 20.9539 80.163 20.6627 81.5477 20.6627C82.9325 20.6627 84.1688 20.9539 85.2568 21.5363C86.3613 22.1187 87.2268 22.9507 87.8532 24.0323C88.4961 25.1139 88.8176 26.3786 88.8176 27.8262C88.8176 29.2739 88.4961 30.5469 87.8532 31.6451C87.2268 32.7267 86.3613 33.5587 85.2568 34.1411C84.1523 34.7235 82.9077 35.0147 81.523 35.0147ZM81.523 30.7715C82.1989 30.7715 82.7594 30.5219 83.2045 30.0227C83.666 29.5069 83.8968 28.7747 83.8968 27.8262C83.8968 26.8778 83.666 26.1539 83.2045 25.6547C82.7594 25.1555 82.2071 24.9059 81.5477 24.9059C80.8883 24.9059 80.3361 25.1555 79.891 25.6547C79.4459 26.1539 79.2234 26.8778 79.2234 27.8262C79.2234 28.7914 79.4377 29.5235 79.8663 30.0227C80.2949 30.5219 80.8471 30.7715 81.523 30.7715Z" fill="#8CC43D"/>
</g>
<defs>
<clipPath id="clip0_2314_20776">
<rect width="102" height="52" fill="white"/>
</clipPath>
</defs>
</svg>
