<?xml version="1.0" standalone="no"?>
<!DOCTYPE svg PUBLIC "-//W3C//DTD SVG 20010904//EN"
 "http://www.w3.org/TR/2001/REC-SVG-20010904/DTD/svg10.dtd">
<svg version="1.0" xmlns="http://www.w3.org/2000/svg"
 width="406.000000pt" height="406.000000pt" viewBox="0 0 406.000000 406.000000"
 preserveAspectRatio="xMidYMid meet">
<metadata>
Created by potrace 1.14, written by Peter Selinger 2001-2017
</metadata>
<g transform="translate(0.000000,406.000000) scale(0.100000,-0.100000)"
fill="#000000" stroke="none">
<path d="M0 4035 c0 -21 5 -25 30 -25 l30 0 0 -119 c0 -66 2 -126 5 -133 5
-12 41 -14 217 -10 256 6 463 -12 713 -59 169 -33 385 -91 480 -129 11 -5 73
-29 138 -54 266 -104 546 -261 762 -426 33 -25 73 -51 88 -58 43 -19 132 -15
175 7 20 11 145 128 277 261 132 133 260 255 284 272 91 64 203 84 313 55 57
-15 61 -19 76 -73 24 -82 11 -210 -29 -286 -6 -13 -132 -144 -279 -293 -284
-286 -300 -307 -300 -396 0 -59 12 -88 70 -164 283 -369 487 -823 600 -1330
20 -91 39 -218 61 -419 6 -54 9 -202 8 -330 l-3 -231 132 -3 132 -3 0 1961 0
1960 40 0 c36 0 40 3 40 25 l0 25 -2030 0 -2030 0 0 -25z"/>
<path d="M100 3261 l-35 -6 -3 -232 -2 -232 247 1 c137 0 279 -5 318 -11 39
-6 102 -16 140 -23 140 -22 333 -77 475 -134 164 -65 279 -126 497 -264 46
-29 62 -33 121 -34 84 0 126 18 179 79 65 73 79 156 42 242 -26 62 -39 76
-124 133 -119 80 -205 130 -330 190 -177 85 -199 94 -330 138 -247 84 -390
115 -704 152 -90 11 -433 11 -491 1z"/>
<path d="M251 2378 c-58 -5 -121 -15 -140 -21 l-36 -12 -2 -205 c-1 -113 2
-211 6 -219 10 -15 38 -10 125 22 44 16 271 13 336 -5 110 -31 202 -84 259
-150 41 -48 81 -130 81 -168 -1 -45 -39 -121 -72 -139 -25 -14 -29 -13 -79 26
-206 156 -400 132 -495 -63 -37 -76 -41 -135 -15 -205 48 -126 166 -209 299
-209 139 0 199 42 526 370 l264 265 12 57 c23 116 -26 257 -121 342 -132 119
-348 236 -506 275 -24 6 -60 15 -80 20 -21 5 -74 12 -118 16 -44 3 -93 7 -110
9 -16 2 -77 -1 -134 -6z"/>
<path d="M2446 2106 c-84 -32 -146 -125 -146 -221 0 -64 11 -89 97 -225 161
-253 271 -534 332 -845 31 -161 36 -223 36 -468 l0 -257 235 2 235 3 3 230 c4
253 -10 425 -50 605 -36 169 -40 181 -78 305 -104 336 -340 780 -452 852 -52
32 -152 41 -212 19z"/>
<path d="M1725 1336 c-5 -2 -23 -7 -40 -11 -22 -5 -102 -78 -288 -263 -332
-330 -377 -394 -377 -534 0 -133 83 -251 209 -299 70 -26 129 -22 205 15 130
64 187 176 156 307 -15 62 -56 143 -100 198 -18 21 -30 47 -28 58 5 30 94 83
140 83 88 0 221 -102 275 -210 50 -102 64 -168 64 -305 1 -113 -3 -140 -25
-205 -19 -56 -22 -76 -13 -82 15 -10 408 -10 423 0 36 24 54 387 26 512 -21
92 -40 158 -62 215 -23 62 -111 227 -149 279 -96 133 -132 168 -208 203 -68
31 -176 51 -208 39z"/>
<path d="M75 878 c-2 -13 -4 -194 -2 -403 l2 -380 415 -3 415 -2 -405 405
c-223 223 -408 405 -412 405 -4 0 -10 -10 -13 -22z"/>
</g>
</svg>
