<svg width="12" height="12" viewBox="0 0 12 12" fill="none" xmlns="http://www.w3.org/2000/svg">
<path d="M11.0312 1.26562H8.73438V0.390625C8.73438 0.330469 8.68516 0.28125 8.625 0.28125H7.85938C7.79922 0.28125 7.75 0.330469 7.75 0.390625V1.26562H4.25V0.390625C4.25 0.330469 4.20078 0.28125 4.14062 0.28125H3.375C3.31484 0.28125 3.26562 0.330469 3.26562 0.390625V1.26562H0.96875C0.726758 1.26562 0.53125 1.46113 0.53125 1.70312V10.7812C0.53125 11.0232 0.726758 11.2188 0.96875 11.2188H11.0312C11.2732 11.2188 11.4688 11.0232 11.4688 10.7812V1.70312C11.4688 1.46113 11.2732 1.26562 11.0312 1.26562ZM10.4844 10.2344H1.51562V5.03906H10.4844V10.2344ZM1.51562 4.10938V2.25H3.26562V2.90625C3.26562 2.96641 3.31484 3.01562 3.375 3.01562H4.14062C4.20078 3.01562 4.25 2.96641 4.25 2.90625V2.25H7.75V2.90625C7.75 2.96641 7.79922 3.01562 7.85938 3.01562H8.625C8.68516 3.01562 8.73438 2.96641 8.73438 2.90625V2.25H10.4844V4.10938H1.51562Z" fill="black" fill-opacity="0.45"/>
</svg>
