<svg width="14" height="14" viewBox="0 0 14 14" fill="none" xmlns="http://www.w3.org/2000/svg">
<path d="M12.25 7.00024C12.25 7.11628 12.2039 7.22756 12.1218 7.3096C12.0398 7.39165 11.9285 7.43774 11.8125 7.43774H3.24349L6.43451 10.6282C6.47516 10.6689 6.5074 10.7171 6.5294 10.7702C6.5514 10.8233 6.56272 10.8803 6.56272 10.9377C6.56272 10.9952 6.5514 11.0522 6.5294 11.1053C6.5074 11.1584 6.47516 11.2066 6.43451 11.2473C6.39386 11.2879 6.3456 11.3202 6.2925 11.3422C6.23939 11.3642 6.18246 11.3755 6.12498 11.3755C6.06749 11.3755 6.01057 11.3642 5.95746 11.3422C5.90435 11.3202 5.8561 11.2879 5.81545 11.2473L1.87795 7.30977C1.83727 7.26914 1.805 7.22089 1.78298 7.16778C1.76097 7.11467 1.74963 7.05774 1.74963 7.00024C1.74963 6.94275 1.76097 6.88582 1.78298 6.83271C1.805 6.7796 1.83727 6.73134 1.87795 6.69071L5.81545 2.75321C5.89754 2.67112 6.00888 2.625 6.12498 2.625C6.24108 2.625 6.35242 2.67112 6.43451 2.75321C6.5166 2.8353 6.56272 2.94665 6.56272 3.06274C6.56272 3.17884 6.5166 3.29018 6.43451 3.37227L3.24349 6.56274H11.8125C11.9285 6.56274 12.0398 6.60884 12.1218 6.69088C12.2039 6.77293 12.25 6.88421 12.25 7.00024Z" fill="#343330"/>
</svg>
