<svg width="489" height="59" viewBox="0 0 489 59" fill="none" xmlns="http://www.w3.org/2000/svg">
<g clip-path="url(#clip0_5001_48378)">
<path d="M18.8203 46.9053H17.8422L15.6547 43.0811C15.5585 42.9145 15.4201 42.7762 15.2535 42.6802C15.0868 42.5842 14.8978 42.5338 14.7055 42.5342H12.8852L11.9125 40.0928C11.8319 39.8894 11.6919 39.715 11.5108 39.5923C11.3296 39.4697 11.1157 39.4045 10.8969 39.4053H9.24375C9.02497 39.4045 8.81104 39.4697 8.62987 39.5923C8.4487 39.715 8.30869 39.8894 8.22812 40.0928L7.25313 42.5303H5.43281C5.24048 42.5299 5.05145 42.5803 4.8848 42.6763C4.71815 42.7723 4.57976 42.9106 4.48359 43.0772L2.29609 46.9053H1.32031C1.19599 46.9053 1.07676 46.9547 0.988856 47.0426C0.900949 47.1305 0.851562 47.2497 0.851562 47.374C0.851562 47.4984 0.900949 47.6176 0.988856 47.7055C1.07676 47.7934 1.19599 47.8428 1.32031 47.8428H2.10156V54.249C2.10156 54.5391 2.2168 54.8173 2.42191 55.0224C2.62703 55.2275 2.90523 55.3428 3.19531 55.3428H5.07031C5.36039 55.3428 5.63859 55.2275 5.84371 55.0224C6.04883 54.8173 6.16406 54.5391 6.16406 54.249V52.8428H13.9766V54.249C13.9766 54.5391 14.0918 54.8173 14.2969 55.0224C14.502 55.2275 14.7802 55.3428 15.0703 55.3428H16.9453C17.2354 55.3428 17.5136 55.2275 17.7187 55.0224C17.9238 54.8173 18.0391 54.5391 18.0391 54.249V47.8428H18.8203C18.9446 47.8428 19.0639 47.7934 19.1518 47.7055C19.2397 47.6176 19.2891 47.4984 19.2891 47.374C19.2891 47.2497 19.2397 47.1305 19.1518 47.0426C19.0639 46.9547 18.9446 46.9053 18.8203 46.9053ZM9.09844 40.4412C9.11002 40.4121 9.13006 40.3872 9.15597 40.3697C9.18187 40.3521 9.21246 40.3427 9.24375 40.3428H10.8969C10.9282 40.3427 10.9587 40.3521 10.9847 40.3697C11.0106 40.3872 11.0306 40.4121 11.0422 40.4412L11.8781 42.5303H8.2625L9.09844 40.4412ZM5.29766 43.5459C5.31136 43.5222 5.33106 43.5025 5.35478 43.4888C5.3785 43.475 5.40541 43.4678 5.43281 43.4678H14.7078C14.7352 43.4678 14.7621 43.475 14.7858 43.4888C14.8096 43.5025 14.8293 43.5222 14.843 43.5459L16.7625 46.9053H3.37813L5.29766 43.5459ZM5.22656 54.249C5.22656 54.2905 5.2101 54.3302 5.1808 54.3595C5.1515 54.3888 5.11175 54.4053 5.07031 54.4053H3.19531C3.15387 54.4053 3.11413 54.3888 3.08483 54.3595C3.05552 54.3302 3.03906 54.2905 3.03906 54.249V52.8428H5.22656V54.249ZM16.9453 54.4053H15.0703C15.0289 54.4053 14.9891 54.3888 14.9598 54.3595C14.9305 54.3302 14.9141 54.2905 14.9141 54.249V52.8428H17.1016V54.249C17.1016 54.2905 17.0851 54.3302 17.0558 54.3595C17.0265 54.3888 16.9868 54.4053 16.9453 54.4053ZM17.1016 51.9053H3.03906V47.8428H17.1016V51.9053ZM4.60156 49.874C4.60156 49.7497 4.65095 49.6305 4.73886 49.5426C4.82676 49.4547 4.94599 49.4053 5.07031 49.4053H6.32031C6.44463 49.4053 6.56386 49.4547 6.65177 49.5426C6.73968 49.6305 6.78906 49.7497 6.78906 49.874C6.78906 49.9984 6.73968 50.1176 6.65177 50.2055C6.56386 50.2934 6.44463 50.3428 6.32031 50.3428H5.07031C4.94599 50.3428 4.82676 50.2934 4.73886 50.2055C4.65095 50.1176 4.60156 49.9984 4.60156 49.874ZM13.3516 49.874C13.3516 49.7497 13.4009 49.6305 13.4889 49.5426C13.5768 49.4547 13.696 49.4053 13.8203 49.4053H15.0703C15.1946 49.4053 15.3139 49.4547 15.4018 49.5426C15.4897 49.6305 15.5391 49.7497 15.5391 49.874C15.5391 49.9984 15.4897 50.1176 15.4018 50.2055C15.3139 50.2934 15.1946 50.3428 15.0703 50.3428H13.8203C13.696 50.3428 13.5768 50.2934 13.4889 50.2055C13.4009 50.1176 13.3516 49.9984 13.3516 49.874Z" fill="#232323"/>
</g>
<path d="M44.0703 40.6553C42.4942 40.6553 40.9536 41.1226 39.6431 41.9982C38.3327 42.8739 37.3113 44.1184 36.7082 45.5745C36.105 47.0306 35.9472 48.6329 36.2547 50.1786C36.5622 51.7244 37.3211 53.1443 38.4356 54.2588C39.55 55.3732 40.9699 56.1322 42.5157 56.4397C44.0615 56.7471 45.6637 56.5893 47.1198 55.9862C48.5759 55.3831 49.8205 54.3617 50.6961 53.0512C51.5717 51.7408 52.0391 50.2001 52.0391 48.624C52.0366 46.5113 51.1962 44.4859 49.7023 42.992C48.2084 41.4981 46.183 40.6578 44.0703 40.6553ZM51.0859 48.1553H47.6555C47.5352 44.9701 46.2117 42.8248 45.2781 41.6967C46.8286 41.9697 48.2429 42.754 49.2956 43.9246C50.3482 45.0952 50.9785 46.5847 51.0859 48.1553ZM44.0703 55.4857C43.619 55.0253 43.2209 54.5156 42.8836 53.9662C41.9864 52.4942 41.4837 50.8157 41.4242 49.0928H46.7164C46.6569 50.8157 46.1543 52.4942 45.257 53.9662C44.9197 54.5156 44.5216 55.0253 44.0703 55.4857ZM41.4242 48.1553C41.4837 46.4324 41.9864 44.7539 42.8836 43.2818C43.2209 42.7324 43.619 42.2227 44.0703 41.7623C44.5216 42.2227 44.9197 42.7324 45.257 43.2818C46.1543 44.7539 46.6569 46.4324 46.7164 48.1553H41.4242ZM42.8625 41.6967C41.925 42.8248 40.6055 44.9701 40.4852 48.1553H37.0547C37.1621 46.5847 37.7924 45.0952 38.8451 43.9246C39.8977 42.754 41.3121 41.9697 42.8625 41.6967ZM37.0547 49.0928H40.4852C40.6055 52.2779 41.9289 54.4232 42.8625 55.5514C41.3121 55.2784 39.8977 54.494 38.8451 53.3234C37.7924 52.1528 37.1621 50.6634 37.0547 49.0928ZM45.2781 55.5514C46.2117 54.4232 47.5352 52.2779 47.6555 49.0928H51.0859C50.9785 50.6634 50.3482 52.1528 49.2956 53.3234C48.2429 54.494 46.8286 55.2784 45.2781 55.5514Z" fill="#232323"/>
<path d="M78.0703 40.6553C76.4942 40.6553 74.9536 41.1226 73.6431 41.9982C72.3327 42.8739 71.3113 44.1184 70.7082 45.5745C70.105 47.0306 69.9472 48.6329 70.2547 50.1786C70.5622 51.7244 71.3211 53.1443 72.4356 54.2588C73.55 55.3732 74.9699 56.1322 76.5157 56.4397C78.0615 56.7471 79.6637 56.5893 81.1198 55.9862C82.5759 55.3831 83.8205 54.3617 84.6961 53.0512C85.5717 51.7408 86.0391 50.2001 86.0391 48.624C86.0366 46.5113 85.1962 44.4859 83.7023 42.992C82.2084 41.4981 80.183 40.6578 78.0703 40.6553ZM78.0703 55.6553C76.6797 55.6553 75.3202 55.2429 74.164 54.4703C73.0077 53.6977 72.1065 52.5996 71.5743 51.3148C71.0421 50.03 70.9029 48.6162 71.1742 47.2523C71.4455 45.8884 72.1151 44.6355 73.0985 43.6522C74.0818 42.6688 75.3347 41.9992 76.6986 41.7279C78.0625 41.4566 79.4763 41.5958 80.7611 42.128C82.0459 42.6602 83.144 43.5614 83.9166 44.7177C84.6892 45.874 85.1016 47.2334 85.1016 48.624C85.0995 50.4882 84.358 52.2754 83.0399 53.5936C81.7217 54.9118 79.9345 55.6532 78.0703 55.6553ZM78.6953 45.0303H76.1953C76.071 45.0303 75.9518 45.0797 75.8639 45.1676C75.776 45.2555 75.7266 45.3747 75.7266 45.499V51.749C75.7266 51.8733 75.776 51.9926 75.8639 52.0805C75.9518 52.1684 76.071 52.2178 76.1953 52.2178C76.3196 52.2178 76.4389 52.1684 76.5268 52.0805C76.6147 51.9926 76.6641 51.8733 76.6641 51.749V50.3428H78.6953C79.3998 50.3428 80.0754 50.0629 80.5736 49.5648C81.0717 49.0666 81.3516 48.391 81.3516 47.6865C81.3516 46.982 81.0717 46.3064 80.5736 45.8083C80.0754 45.3101 79.3998 45.0303 78.6953 45.0303ZM78.6953 49.4053H76.6641V45.9678H78.6953C79.1512 45.9678 79.5883 46.1489 79.9107 46.4712C80.233 46.7935 80.4141 47.2307 80.4141 47.6865C80.4141 48.1424 80.233 48.5795 79.9107 48.9019C79.5883 49.2242 79.1512 49.4053 78.6953 49.4053Z" fill="#232323"/>
<path d="M115.82 46.5928C116.284 46.5928 116.737 46.4553 117.122 46.1978C117.508 45.9402 117.808 45.5742 117.986 45.1459C118.163 44.7177 118.209 44.2464 118.119 43.7918C118.029 43.3371 117.805 42.9195 117.478 42.5917C117.15 42.264 116.732 42.0407 116.278 41.9503C115.823 41.8599 115.352 41.9063 114.923 42.0837C114.495 42.2611 114.129 42.5615 113.872 42.9469C113.614 43.3323 113.477 43.7855 113.477 44.249C113.477 44.8706 113.723 45.4668 114.163 45.9063C114.603 46.3458 115.199 46.5928 115.82 46.5928ZM115.82 42.8428C116.098 42.8428 116.37 42.9252 116.602 43.0798C116.833 43.2343 117.013 43.4539 117.12 43.7109C117.226 43.9678 117.254 44.2506 117.2 44.5234C117.145 44.7962 117.011 45.0467 116.815 45.2434C116.618 45.4401 116.367 45.574 116.095 45.6283C115.822 45.6825 115.539 45.6547 115.282 45.5482C115.025 45.4418 114.806 45.2616 114.651 45.0303C114.497 44.799 114.414 44.5272 114.414 44.249C114.414 43.8761 114.562 43.5184 114.826 43.2547C115.09 42.9909 115.447 42.8428 115.82 42.8428ZM119.306 53.2006C119.346 53.248 119.375 53.3027 119.393 53.3615C119.411 53.4203 119.418 53.4821 119.412 53.5435C119.406 53.6048 119.389 53.6643 119.36 53.7188C119.331 53.7732 119.292 53.8215 119.245 53.8607C117.927 54.9545 116.745 55.3451 115.67 55.3451C114.249 55.3451 113.004 54.6693 111.847 54.0404C109.816 52.9381 108.062 51.985 105.495 54.1186C105.447 54.1578 105.392 54.1873 105.332 54.2053C105.273 54.2233 105.211 54.2294 105.149 54.2234C105.088 54.2173 105.028 54.1992 104.973 54.17C104.918 54.1408 104.87 54.1012 104.831 54.0533C104.751 53.9567 104.714 53.8324 104.726 53.708C104.738 53.5835 104.799 53.469 104.896 53.3896C107.953 50.8545 110.259 52.1076 112.294 53.2123C114.328 54.317 116.078 55.2678 118.646 53.1342C118.694 53.0951 118.749 53.0659 118.808 53.0481C118.867 53.0303 118.929 53.0243 118.99 53.0305C119.051 53.0367 119.111 53.0549 119.165 53.084C119.219 53.1132 119.267 53.1528 119.306 53.2006ZM104.896 50.2646C104.8 50.344 104.74 50.4581 104.729 50.5819C104.717 50.7057 104.755 50.8291 104.834 50.9248C104.914 51.0205 105.028 51.0808 105.152 51.0924C105.275 51.104 105.399 51.0659 105.495 50.9865C108.062 48.8568 109.816 49.8092 111.847 50.9084C113.008 51.5412 114.249 52.2178 115.67 52.2178C116.748 52.2178 117.927 51.8271 119.245 50.7334C119.292 50.6941 119.331 50.6459 119.36 50.5914C119.389 50.537 119.406 50.4774 119.412 50.4161C119.418 50.3548 119.411 50.293 119.393 50.2341C119.375 50.1753 119.346 50.1206 119.306 50.0732C119.267 50.0258 119.219 49.9866 119.164 49.9579C119.11 49.9291 119.05 49.9114 118.989 49.9057C118.928 49.8999 118.866 49.9063 118.807 49.9245C118.748 49.9427 118.693 49.9722 118.646 50.0115C118.062 50.4959 117.519 50.8209 117.005 51.0209L112.723 46.7381C111.985 45.996 111.107 45.4077 110.14 45.0073C109.173 44.6068 108.136 44.4022 107.089 44.4053H105.195C105.071 44.4053 104.952 44.4547 104.864 44.5426C104.776 44.6305 104.727 44.7497 104.727 44.874C104.727 44.9983 104.776 45.1176 104.864 45.2055C104.952 45.2934 105.071 45.3428 105.195 45.3428H107.089C108.328 45.3403 109.545 45.6673 110.616 46.2904L108.109 48.7982C107.13 48.8787 106.069 49.2936 104.896 50.2646ZM112.061 47.4021L115.931 51.2732C114.658 51.3717 113.527 50.7576 112.294 50.0881C111.385 49.5943 110.419 49.0725 109.363 48.8693L111.406 46.8271C111.636 47.0059 111.854 47.1982 112.061 47.4029V47.4021Z" fill="#232323"/>
<path d="M152.945 41.9053H139.195C138.905 41.9053 138.627 42.0205 138.422 42.2256C138.217 42.4307 138.102 42.7089 138.102 42.999V54.249C138.102 54.5391 138.217 54.8173 138.422 55.0224C138.627 55.2275 138.905 55.3428 139.195 55.3428H152.945C153.235 55.3428 153.514 55.2275 153.719 55.0224C153.924 54.8173 154.039 54.5391 154.039 54.249V42.999C154.039 42.7089 153.924 42.4307 153.719 42.2256C153.514 42.0205 153.235 41.9053 152.945 41.9053ZM153.102 42.999V48.1553H149.039V42.8428H152.945C152.987 42.8428 153.026 42.8592 153.056 42.8885C153.085 42.9178 153.102 42.9576 153.102 42.999ZM139.039 54.249V42.999C139.039 42.9576 139.056 42.9178 139.085 42.8885C139.114 42.8592 139.154 42.8428 139.195 42.8428H148.102V54.4053H139.195C139.154 54.4053 139.114 54.3888 139.085 54.3595C139.056 54.3302 139.039 54.2905 139.039 54.249ZM152.945 54.4053H149.039V49.0928H153.102V54.249C153.102 54.2905 153.085 54.3302 153.056 54.3595C153.026 54.3888 152.987 54.4053 152.945 54.4053ZM150.289 45.499C150.289 45.3445 150.335 45.1935 150.421 45.065C150.507 44.9365 150.629 44.8364 150.771 44.7772C150.914 44.7181 151.071 44.7026 151.223 44.7328C151.374 44.7629 151.513 44.8373 151.623 44.9466C151.732 45.0559 151.806 45.1951 151.837 45.3466C151.867 45.4982 151.851 45.6552 151.792 45.798C151.733 45.9407 151.633 46.0628 151.504 46.1486C151.376 46.2345 151.225 46.2803 151.07 46.2803C150.863 46.2803 150.664 46.198 150.518 46.0515C150.371 45.9049 150.289 45.7062 150.289 45.499ZM151.852 51.749C151.852 51.9035 151.806 52.0546 151.72 52.1831C151.634 52.3115 151.512 52.4117 151.369 52.4708C151.227 52.5299 151.069 52.5454 150.918 52.5153C150.766 52.4851 150.627 52.4107 150.518 52.3015C150.409 52.1922 150.334 52.053 150.304 51.9014C150.274 51.7499 150.289 51.5928 150.349 51.4501C150.408 51.3073 150.508 51.1853 150.636 51.0994C150.765 51.0136 150.916 50.9678 151.07 50.9678C151.278 50.9678 151.476 51.0501 151.623 51.1966C151.769 51.3431 151.852 51.5418 151.852 51.749ZM146.524 51.6326C146.419 51.2441 146.237 50.8809 145.987 50.5651C145.738 50.2494 145.426 49.9877 145.073 49.7959C145.442 49.4873 145.708 49.0724 145.833 48.6076C145.959 48.1427 145.938 47.6505 145.774 47.1978C145.61 46.7452 145.31 46.354 144.916 46.0776C144.522 45.8012 144.052 45.6529 143.571 45.6529C143.089 45.6529 142.619 45.8012 142.225 46.0776C141.831 46.354 141.531 46.7452 141.367 47.1978C141.203 47.6505 141.182 48.1427 141.308 48.6076C141.433 49.0724 141.699 49.4873 142.069 49.7959C141.715 49.9875 141.404 50.2491 141.154 50.5647C140.904 50.8803 140.721 51.2434 140.616 51.6318C140.585 51.7522 140.603 51.88 140.666 51.9871C140.73 52.0942 140.833 52.1718 140.953 52.2029C141.074 52.234 141.201 52.216 141.308 52.1528C141.416 52.0897 141.493 51.9866 141.524 51.8662C141.748 50.9975 142.627 50.3428 143.57 50.3428C144.513 50.3428 145.394 50.9975 145.616 51.8654C145.647 51.9858 145.725 52.0889 145.832 52.1521C145.939 52.2152 146.067 52.2332 146.188 52.2021C146.308 52.1711 146.411 52.0934 146.474 51.9863C146.537 51.8792 146.555 51.7514 146.524 51.6311V51.6326ZM142.164 47.999C142.164 47.7209 142.247 47.449 142.401 47.2178C142.556 46.9865 142.775 46.8063 143.032 46.6998C143.289 46.5934 143.572 46.5655 143.845 46.6198C144.117 46.6741 144.368 46.808 144.565 47.0047C144.761 47.2013 144.895 47.4519 144.95 47.7247C145.004 47.9975 144.976 48.2802 144.87 48.5372C144.763 48.7941 144.583 49.0138 144.352 49.1683C144.12 49.3228 143.848 49.4053 143.57 49.4053C143.197 49.4053 142.84 49.2571 142.576 48.9934C142.312 48.7297 142.164 48.372 142.164 47.999Z" fill="#232323"/>
<path d="M189.445 48.1553H188.664V45.499C188.664 45.2089 188.549 44.9307 188.344 44.7256C188.139 44.5205 187.86 44.4053 187.57 44.4053H186.164V43.624C186.164 43.3339 186.049 43.0557 185.844 42.8506C185.639 42.6455 185.36 42.5303 185.07 42.5303H183.195C182.905 42.5303 182.627 42.6455 182.422 42.8506C182.217 43.0557 182.102 43.3339 182.102 43.624V48.1553H178.039V43.624C178.039 43.3339 177.924 43.0557 177.719 42.8506C177.514 42.6455 177.235 42.5303 176.945 42.5303H175.07C174.78 42.5303 174.502 42.6455 174.297 42.8506C174.092 43.0557 173.977 43.3339 173.977 43.624V44.4053H172.57C172.28 44.4053 172.002 44.5205 171.797 44.7256C171.592 44.9307 171.477 45.2089 171.477 45.499V48.1553H170.695C170.571 48.1553 170.452 48.2047 170.364 48.2926C170.276 48.3805 170.227 48.4997 170.227 48.624C170.227 48.7483 170.276 48.8676 170.364 48.9555C170.452 49.0434 170.571 49.0928 170.695 49.0928H171.477V51.749C171.477 52.0391 171.592 52.3173 171.797 52.5224C172.002 52.7275 172.28 52.8428 172.57 52.8428H173.977V53.624C173.977 53.9141 174.092 54.1923 174.297 54.3974C174.502 54.6025 174.78 54.7178 175.07 54.7178H176.945C177.235 54.7178 177.514 54.6025 177.719 54.3974C177.924 54.1923 178.039 53.9141 178.039 53.624V49.0928H182.102V53.624C182.102 53.9141 182.217 54.1923 182.422 54.3974C182.627 54.6025 182.905 54.7178 183.195 54.7178H185.07C185.36 54.7178 185.639 54.6025 185.844 54.3974C186.049 54.1923 186.164 53.9141 186.164 53.624V52.8428H187.57C187.86 52.8428 188.139 52.7275 188.344 52.5224C188.549 52.3173 188.664 52.0391 188.664 51.749V49.0928H189.445C189.57 49.0928 189.689 49.0434 189.777 48.9555C189.865 48.8676 189.914 48.7483 189.914 48.624C189.914 48.4997 189.865 48.3805 189.777 48.2926C189.689 48.2047 189.57 48.1553 189.445 48.1553ZM172.57 51.9053C172.529 51.9053 172.489 51.8888 172.46 51.8595C172.431 51.8302 172.414 51.7905 172.414 51.749V45.499C172.414 45.4576 172.431 45.4178 172.46 45.3885C172.489 45.3592 172.529 45.3428 172.57 45.3428H173.977V51.9053H172.57ZM177.102 53.624C177.102 53.6655 177.085 53.7052 177.056 53.7345C177.026 53.7638 176.987 53.7803 176.945 53.7803H175.07C175.029 53.7803 174.989 53.7638 174.96 53.7345C174.931 53.7052 174.914 53.6655 174.914 53.624V43.624C174.914 43.5826 174.931 43.5428 174.96 43.5135C174.989 43.4842 175.029 43.4678 175.07 43.4678H176.945C176.987 43.4678 177.026 43.4842 177.056 43.5135C177.085 43.5428 177.102 43.5826 177.102 43.624V53.624ZM185.227 53.624C185.227 53.6655 185.21 53.7052 185.181 53.7345C185.151 53.7638 185.112 53.7803 185.07 53.7803H183.195C183.154 53.7803 183.114 53.7638 183.085 53.7345C183.056 53.7052 183.039 53.6655 183.039 53.624V43.624C183.039 43.5826 183.056 43.5428 183.085 43.5135C183.114 43.4842 183.154 43.4678 183.195 43.4678H185.07C185.112 43.4678 185.151 43.4842 185.181 43.5135C185.21 43.5428 185.227 43.5826 185.227 43.624V53.624ZM187.727 51.749C187.727 51.7905 187.71 51.8302 187.681 51.8595C187.651 51.8888 187.612 51.9053 187.57 51.9053H186.164V45.3428H187.57C187.612 45.3428 187.651 45.3592 187.681 45.3885C187.71 45.4178 187.727 45.4576 187.727 45.499V51.749Z" fill="#232323"/>
<path d="M209.852 45.4993V41.7493C209.852 41.625 209.901 41.5058 209.989 41.4179C210.077 41.33 210.196 41.2806 210.32 41.2806C210.445 41.2806 210.564 41.33 210.652 41.4179C210.74 41.5058 210.789 41.625 210.789 41.7493V45.4993C210.789 45.6236 210.74 45.7429 210.652 45.8308C210.564 45.9187 210.445 45.9681 210.32 45.9681C210.196 45.9681 210.077 45.9187 209.989 45.8308C209.901 45.7429 209.852 45.6236 209.852 45.4993ZM220.789 41.7493V56.1243C220.789 56.2486 220.74 56.3679 220.652 56.4558C220.564 56.5437 220.445 56.5931 220.32 56.5931C220.196 56.5931 220.077 56.5437 219.989 56.4558C219.901 56.3679 219.852 56.2486 219.852 56.1243V52.2181H215.945C215.821 52.2181 215.702 52.1687 215.614 52.0808C215.526 51.9929 215.477 51.8736 215.477 51.7493C215.477 51.4048 215.53 43.2923 220.136 41.3189C220.207 41.2884 220.285 41.276 220.362 41.2829C220.439 41.2898 220.514 41.3158 220.578 41.3584C220.643 41.4011 220.696 41.4591 220.733 41.5273C220.77 41.5956 220.789 41.6718 220.789 41.7493ZM219.852 42.5306C216.977 44.4282 216.506 49.6775 216.429 51.2806H219.852V42.5306ZM213.283 41.6712C213.273 41.6105 213.25 41.5523 213.218 41.5002C213.185 41.448 213.142 41.4027 213.092 41.367C213.042 41.3314 212.985 41.3059 212.925 41.2921C212.865 41.2784 212.803 41.2766 212.742 41.2868C212.681 41.2971 212.623 41.3192 212.571 41.3519C212.519 41.3847 212.474 41.4273 212.438 41.4775C212.402 41.5277 212.377 41.5845 212.363 41.6445C212.349 41.7046 212.348 41.7667 212.358 41.8275L212.977 45.5368C212.977 46.2413 212.697 46.9169 212.199 47.4151C211.7 47.9132 211.025 48.1931 210.32 48.1931C209.616 48.1931 208.94 47.9132 208.442 47.4151C207.944 46.9169 207.664 46.2413 207.664 45.5368L208.283 41.8275C208.304 41.7048 208.275 41.5789 208.203 41.4775C208.131 41.3761 208.021 41.3075 207.898 41.2868C207.776 41.2661 207.65 41.295 207.549 41.367C207.447 41.4391 207.379 41.5485 207.358 41.6712L206.733 45.4212C206.729 45.447 206.727 45.4732 206.727 45.4993C206.728 46.3709 207.045 47.2124 207.62 47.8676C208.195 48.5228 208.988 48.9472 209.852 49.0618V56.1243C209.852 56.2486 209.901 56.3679 209.989 56.4558C210.077 56.5437 210.196 56.5931 210.32 56.5931C210.445 56.5931 210.564 56.5437 210.652 56.4558C210.74 56.3679 210.789 56.2486 210.789 56.1243V49.0618C211.653 48.9472 212.446 48.5228 213.021 47.8676C213.596 47.2124 213.913 46.3709 213.914 45.4993C213.914 45.4732 213.912 45.447 213.908 45.4212L213.283 41.6712Z" fill="#232323"/>
<path d="M257.141 48.2042C257.071 48.082 256.978 47.9749 256.867 47.889C256.755 47.8032 256.628 47.7404 256.492 47.7042C255.876 47.5466 255.238 47.4938 254.604 47.548C254.969 45.9362 254.73 44.6644 254.491 43.923C254.407 43.661 254.229 43.4397 253.991 43.302C253.753 43.1644 253.472 43.1203 253.203 43.1784C252.369 43.3655 251.579 43.7134 250.878 44.2026C250.39 43.1412 249.653 42.2138 248.728 41.4995C248.538 41.3566 248.307 41.2793 248.07 41.2793C247.832 41.2793 247.601 41.3566 247.412 41.4995C246.488 42.2141 245.75 43.1415 245.262 44.2026C244.561 43.7132 243.771 43.3653 242.937 43.1784C242.668 43.1204 242.387 43.1646 242.149 43.3024C241.911 43.4402 241.733 43.6617 241.65 43.9237C241.41 44.6651 241.172 45.937 241.537 47.5487C240.903 47.4946 240.265 47.5474 239.648 47.705C239.513 47.7411 239.385 47.804 239.274 47.8898C239.163 47.9756 239.069 48.0828 239 48.205C238.927 48.3306 238.88 48.4694 238.861 48.6135C238.842 48.7576 238.852 48.9039 238.891 49.044C239.149 50.0034 239.945 51.8269 242.361 53.273C244.777 54.719 246.921 54.7175 248.07 54.7175C249.22 54.7175 251.361 54.7175 253.778 53.273C256.195 51.8284 256.99 50.0034 257.248 49.0433C257.287 48.9033 257.297 48.7569 257.279 48.6129C257.26 48.4688 257.213 48.3299 257.141 48.2042ZM251.233 45.1003C251.876 44.6153 252.615 44.2718 253.4 44.0925C253.442 44.084 253.485 44.0912 253.522 44.1129C253.558 44.1345 253.586 44.169 253.598 44.2097C253.906 45.1644 254.209 47.1394 252.771 49.6394C252.194 50.6254 251.454 51.5069 250.584 52.2464C251.184 51.2019 251.664 49.7901 251.664 47.9339C251.671 46.9725 251.526 46.016 251.233 45.1003ZM242.542 44.212C242.554 44.1709 242.582 44.1359 242.618 44.1138C242.655 44.0917 242.699 44.0841 242.741 44.0925C243.526 44.2718 244.265 44.6153 244.908 45.1003C244.615 46.016 244.469 46.9725 244.477 47.9339C244.477 49.7901 244.957 51.2034 245.555 52.244C244.684 51.5047 243.945 50.6232 243.368 49.637C241.932 47.1394 242.234 45.1644 242.542 44.212ZM242.842 52.4675C240.709 51.1933 240.018 49.6222 239.795 48.7956C239.789 48.7746 239.788 48.7527 239.791 48.7311C239.794 48.7094 239.801 48.6886 239.812 48.6698C239.829 48.6397 239.857 48.6173 239.89 48.6073C240.521 48.4504 241.178 48.422 241.82 48.5237C242.019 49.0726 242.265 49.6028 242.557 50.1081C243.359 51.4913 244.452 52.6835 245.76 53.6019C244.729 53.3977 243.741 53.0137 242.842 52.4675ZM248.07 53.6909C247.392 53.2065 245.414 51.4878 245.414 47.9339C245.414 44.5464 247.206 42.8292 247.977 42.248C248.004 42.2277 248.036 42.2167 248.07 42.2167C248.104 42.2167 248.137 42.2277 248.164 42.248C248.934 42.8292 250.727 44.5464 250.727 47.9339C250.727 51.5097 248.759 53.2073 248.07 53.6909ZM256.344 48.7987C256.121 49.6222 255.43 51.1933 253.297 52.4706C252.397 53.0157 251.409 53.3984 250.377 53.6011C251.685 52.6827 252.778 51.4905 253.58 50.1073C253.873 49.6024 254.121 49.0725 254.32 48.5237C254.964 48.4228 255.621 48.4523 256.252 48.6105C256.285 48.6204 256.313 48.6428 256.33 48.673C256.341 48.6919 256.348 48.7127 256.351 48.7343C256.353 48.7559 256.351 48.7778 256.345 48.7987H256.344Z" fill="#232323"/>
<path d="M289.902 55.7931L285.928 51.8196C286.099 51.7791 286.267 51.729 286.432 51.6696C287.561 51.2585 288.481 50.4157 288.989 49.3265C289.497 48.2373 289.551 46.9911 289.14 45.8618C289.097 45.7451 289.01 45.65 288.897 45.5976C288.785 45.5452 288.656 45.5396 288.539 45.5821L284.687 46.9837C284.79 46.8213 284.882 46.6527 284.964 46.479C285.342 45.6668 285.472 44.7607 285.335 43.8752C285.199 42.9897 284.803 42.1645 284.197 41.5039C283.592 40.8434 282.804 40.3771 281.934 40.1641C281.064 39.9511 280.15 40.0009 279.308 40.3071C279.191 40.3497 279.096 40.437 279.044 40.5496C278.991 40.6623 278.986 40.7911 279.028 40.9079L280.43 44.7587C280.267 44.6568 280.099 44.565 279.925 44.4837C279.113 44.1053 278.207 43.9762 277.321 44.1127C276.436 44.2492 275.61 44.6451 274.95 45.2505C274.289 45.8558 273.823 46.6434 273.61 47.5137C273.397 48.384 273.447 49.2979 273.753 50.1399C273.796 50.2566 273.883 50.3515 273.995 50.404C274.051 50.43 274.112 50.4448 274.173 50.4475C274.235 50.4502 274.296 50.4407 274.354 50.4196L278.205 49.0149C278.102 49.1777 278.011 49.3468 277.93 49.5212C277.609 50.2114 277.467 50.9713 277.517 51.7307C277.567 52.4902 277.808 53.2248 278.216 53.867C278.625 54.5091 279.188 55.0381 279.855 55.4053C280.522 55.7725 281.27 55.966 282.031 55.9681C282.561 55.9672 283.087 55.8739 283.584 55.6923C283.701 55.6503 283.797 55.5636 283.85 55.4512C283.903 55.3388 283.909 55.21 283.867 55.0931L282.461 51.2415C283.14 51.6722 283.923 51.9136 284.727 51.9407L289.241 56.4556C289.33 56.5384 289.448 56.5834 289.569 56.5813C289.691 56.5791 289.807 56.53 289.892 56.4441C289.978 56.3582 290.027 56.2423 290.03 56.1209C290.032 55.9994 289.987 55.8819 289.904 55.7931H289.902ZM280.08 41.0548C280.931 40.8654 281.822 40.9921 282.587 41.4114C283.352 41.8307 283.939 42.5139 284.237 43.3336C284.535 44.1533 284.525 45.0536 284.209 45.8665C283.893 46.6794 283.291 47.3494 282.517 47.7517L280.08 41.0548ZM274.501 49.3665C274.311 48.515 274.438 47.6237 274.857 46.8587C275.277 46.0938 275.96 45.5075 276.78 45.2091C277.599 44.9108 278.5 44.9208 279.312 45.2372C280.125 45.5536 280.795 46.155 281.198 46.929L274.501 49.3665ZM282.812 54.9446C281.961 55.134 281.07 55.0073 280.305 54.588C279.54 54.1687 278.953 53.4855 278.655 52.6658C278.357 51.8461 278.367 50.9458 278.683 50.1329C279 49.32 279.601 48.65 280.375 48.2477L282.812 54.9446ZM284.918 51.0063C284.254 51.0124 283.602 50.8348 283.033 50.4933C282.464 50.1518 282.001 49.6596 281.694 49.0712L288.391 46.6337C288.506 47.1558 288.504 47.697 288.384 48.218C288.264 48.7391 288.029 49.2268 287.697 49.6459C287.365 50.0649 286.943 50.4046 286.464 50.6403C285.984 50.8761 285.457 51.0019 284.923 51.0087L284.918 51.0063Z" fill="#232323"/>
<path d="M322.633 45.0303C322.231 45.0303 321.838 45.1494 321.504 45.3726C321.17 45.5958 320.91 45.913 320.756 46.2842C320.602 46.6554 320.562 47.0638 320.641 47.4578C320.719 47.8518 320.912 48.2138 321.197 48.4978C321.481 48.7819 321.843 48.9754 322.237 49.0537C322.631 49.1321 323.039 49.0919 323.41 48.9382C323.781 48.7844 324.099 48.5241 324.322 48.19C324.545 47.856 324.664 47.4633 324.664 47.0615C324.664 46.5228 324.45 46.0061 324.069 45.6252C323.688 45.2443 323.172 45.0303 322.633 45.0303ZM322.633 48.1553C322.416 48.1553 322.205 48.0911 322.025 47.9709C321.845 47.8508 321.705 47.6799 321.622 47.4801C321.54 47.2802 321.518 47.0603 321.56 46.8481C321.602 46.636 321.706 46.4411 321.859 46.2881C322.012 46.1352 322.207 46.031 322.419 45.9888C322.632 45.9466 322.852 45.9682 323.051 46.051C323.251 46.1338 323.422 46.274 323.542 46.4539C323.662 46.6337 323.727 46.8452 323.727 47.0615C323.727 47.3516 323.611 47.6298 323.406 47.8349C323.201 48.04 322.923 48.1553 322.633 48.1553ZM311.539 47.0615C311.539 46.6598 311.42 46.2671 311.197 45.933C310.974 45.599 310.656 45.3386 310.285 45.1849C309.914 45.0312 309.506 44.9909 309.112 45.0693C308.718 45.1477 308.356 45.3411 308.072 45.6252C307.787 45.9093 307.594 46.2712 307.516 46.6652C307.437 47.0593 307.477 47.4677 307.631 47.8388C307.785 48.21 308.045 48.5273 308.379 48.7504C308.713 48.9736 309.106 49.0928 309.508 49.0928C310.047 49.0928 310.563 48.8788 310.944 48.4978C311.325 48.1169 311.539 47.6002 311.539 47.0615ZM309.508 48.1553C309.291 48.1553 309.08 48.0911 308.9 47.9709C308.72 47.8508 308.58 47.6799 308.497 47.4801C308.415 47.2802 308.393 47.0603 308.435 46.8481C308.477 46.636 308.581 46.4411 308.734 46.2881C308.887 46.1352 309.082 46.031 309.294 45.9888C309.507 45.9466 309.727 45.9682 309.926 46.051C310.126 46.1338 310.297 46.274 310.417 46.4539C310.537 46.6337 310.602 46.8452 310.602 47.0615C310.602 47.3516 310.486 47.6298 310.281 47.8349C310.076 48.04 309.798 48.1553 309.508 48.1553ZM313.258 45.3428C313.66 45.3428 314.052 45.2236 314.386 45.0004C314.72 44.7773 314.981 44.46 315.134 44.0888C315.288 43.7177 315.328 43.3093 315.25 42.9152C315.172 42.5212 314.978 42.1593 314.694 41.8752C314.41 41.5911 314.048 41.3977 313.654 41.3193C313.26 41.2409 312.852 41.2812 312.48 41.4349C312.109 41.5886 311.792 41.849 311.569 42.183C311.346 42.5171 311.227 42.9098 311.227 43.3115C311.227 43.8502 311.441 44.3669 311.822 44.7478C312.202 45.1288 312.719 45.3428 313.258 45.3428ZM313.258 42.2178C313.474 42.2178 313.686 42.2819 313.865 42.4021C314.045 42.5223 314.186 42.6931 314.268 42.893C314.351 43.0928 314.373 43.3127 314.331 43.5249C314.288 43.7371 314.184 43.932 314.031 44.0849C313.878 44.2379 313.683 44.3421 313.471 44.3843C313.259 44.4265 313.039 44.4048 312.839 44.322C312.639 44.2392 312.469 44.099 312.348 43.9192C312.228 43.7393 312.164 43.5278 312.164 43.3115C312.164 43.0214 312.279 42.7432 312.484 42.5381C312.69 42.333 312.968 42.2178 313.258 42.2178ZM318.883 45.3428C319.285 45.3428 319.677 45.2236 320.011 45.0004C320.345 44.7773 320.606 44.46 320.759 44.0888C320.913 43.7177 320.953 43.3093 320.875 42.9152C320.797 42.5212 320.603 42.1593 320.319 41.8752C320.035 41.5911 319.673 41.3977 319.279 41.3193C318.885 41.2409 318.477 41.2812 318.105 41.4349C317.734 41.5886 317.417 41.849 317.194 42.183C316.971 42.5171 316.852 42.9098 316.852 43.3115C316.852 43.8502 317.066 44.3669 317.447 44.7478C317.827 45.1288 318.344 45.3428 318.883 45.3428ZM318.883 42.2178C319.099 42.2178 319.311 42.2819 319.49 42.4021C319.67 42.5223 319.811 42.6931 319.893 42.893C319.976 43.0928 319.998 43.3127 319.956 43.5249C319.913 43.7371 319.809 43.932 319.656 44.0849C319.503 44.2379 319.308 44.3421 319.096 44.3843C318.884 44.4265 318.664 44.4048 318.464 44.322C318.264 44.2392 318.094 44.099 317.973 43.9192C317.853 43.7393 317.789 43.5278 317.789 43.3115C317.789 43.0214 317.904 42.7432 318.109 42.5381C318.315 42.333 318.593 42.2178 318.883 42.2178ZM320.613 50.3904C320.278 50.2053 319.983 49.956 319.744 49.6567C319.505 49.3573 319.327 49.0139 319.221 48.6459C319.023 47.9637 318.608 47.3643 318.04 46.9378C317.472 46.5113 316.781 46.2807 316.07 46.2807C315.36 46.2807 314.669 46.5113 314.1 46.9378C313.532 47.3643 313.118 47.9637 312.92 48.6459C312.706 49.3877 312.207 50.0144 311.531 50.3881C310.95 50.7025 310.491 51.2017 310.225 51.8067C309.96 52.4117 309.904 53.088 310.066 53.7283C310.229 54.3687 310.6 54.9367 311.121 55.3423C311.643 55.7479 312.285 55.968 312.945 55.9678C313.342 55.9683 313.734 55.8885 314.098 55.7334C315.36 55.2135 316.775 55.2135 318.037 55.7334C318.403 55.8891 318.797 55.9688 319.195 55.9678C319.855 55.9679 320.497 55.748 321.018 55.3429C321.539 54.9377 321.911 54.3703 322.073 53.7305C322.236 53.0907 322.181 52.4149 321.916 51.81C321.652 51.2051 321.193 50.7056 320.613 50.3904ZM319.195 55.0303C318.921 55.0306 318.65 54.9754 318.398 54.8678C316.905 54.2516 315.23 54.2516 313.738 54.8678C313.257 55.0679 312.719 55.0761 312.232 54.8907C311.746 54.7053 311.35 54.3404 311.125 53.8713C310.9 53.4023 310.863 52.8647 311.023 52.3695C311.183 51.8743 311.526 51.4593 311.983 51.21C312.876 50.7161 313.537 49.8877 313.82 48.9068C313.961 48.4194 314.257 47.991 314.663 47.6862C315.069 47.3814 315.563 47.2167 316.07 47.2167C316.578 47.2167 317.072 47.3814 317.478 47.6862C317.884 47.991 318.18 48.4194 318.321 48.9068C318.461 49.3932 318.696 49.8471 319.012 50.2426C319.328 50.6381 319.719 50.9673 320.163 51.2115C320.561 51.4264 320.876 51.7679 321.057 52.1821C321.239 52.5962 321.278 53.0592 321.167 53.4977C321.056 53.9362 320.801 54.3251 320.444 54.6027C320.087 54.8803 319.648 55.0308 319.195 55.0303Z" fill="#232323"/>
<path d="M359.445 49.4057C359.321 49.4057 359.202 49.4551 359.114 49.543C359.026 49.6309 358.977 49.7502 358.977 49.8745V51.2807H355.329C355.288 51.2806 355.248 51.264 355.219 51.2346L353.675 49.6917L357.719 45.6479C357.82 45.5464 357.901 45.4258 357.956 45.2931C358.011 45.1604 358.039 45.0181 358.039 44.8745C358.039 44.7309 358.011 44.5886 357.956 44.4559C357.901 44.3232 357.82 44.2026 357.719 44.1011L353.344 39.7261C353.242 39.6244 353.122 39.5437 352.989 39.4886C352.856 39.4336 352.714 39.4053 352.57 39.4053C352.426 39.4053 352.284 39.4336 352.151 39.4886C352.018 39.5437 351.898 39.6244 351.796 39.7261L340.409 51.1518C340.322 51.2393 340.263 51.3506 340.239 51.4718C340.215 51.593 340.227 51.7185 340.275 51.8326C340.322 51.9467 340.402 52.0443 340.505 52.1129C340.607 52.1815 340.728 52.2182 340.852 52.2182H343.992L346.797 55.0229C346.898 55.1245 347.019 55.2051 347.152 55.2601C347.284 55.315 347.427 55.3433 347.57 55.3433C347.714 55.3433 347.856 55.315 347.989 55.2601C348.122 55.2051 348.242 55.1245 348.344 55.0229L353.013 50.3542L354.555 51.8979C354.657 51.9997 354.777 52.0804 354.91 52.1354C355.043 52.1903 355.185 52.2185 355.329 52.2182H358.977V53.6245C358.977 53.7488 359.026 53.868 359.114 53.9559C359.202 54.0439 359.321 54.0932 359.445 54.0932C359.57 54.0932 359.689 54.0439 359.777 53.9559C359.865 53.868 359.914 53.7488 359.914 53.6245V49.8745C359.914 49.7502 359.865 49.6309 359.777 49.543C359.689 49.4551 359.57 49.4057 359.445 49.4057ZM352.46 40.3893C352.489 40.3602 352.529 40.3439 352.57 40.3439C352.612 40.3439 352.651 40.3602 352.68 40.3893L353.782 41.4909L343.992 51.2807H341.605L352.46 40.3893ZM347.68 54.3596C347.651 54.3888 347.612 54.4051 347.57 54.4051C347.529 54.4051 347.489 54.3888 347.46 54.3596L344.849 51.7495L354.445 42.1534L357.055 44.7643C357.085 44.7936 357.101 44.8332 357.101 44.8745C357.101 44.9158 357.085 44.9554 357.055 44.9846L347.68 54.3596Z" fill="#232323"/>
<path d="M387.508 45.3428C387.91 45.3428 388.302 45.2236 388.636 45.0004C388.97 44.7773 389.231 44.46 389.384 44.0888C389.538 43.7177 389.578 43.3093 389.5 42.9152C389.422 42.5212 389.228 42.1593 388.944 41.8752C388.66 41.5911 388.298 41.3977 387.904 41.3193C387.51 41.2409 387.102 41.2812 386.73 41.4349C386.359 41.5886 386.042 41.849 385.819 42.183C385.596 42.5171 385.477 42.9098 385.477 43.3115C385.477 43.8502 385.691 44.3669 386.072 44.7478C386.452 45.1288 386.969 45.3428 387.508 45.3428ZM387.508 42.2178C387.724 42.2178 387.936 42.2819 388.115 42.4021C388.295 42.5223 388.436 42.6931 388.518 42.893C388.601 43.0928 388.623 43.3127 388.581 43.5249C388.538 43.7371 388.434 43.932 388.281 44.0849C388.128 44.2379 387.933 44.3421 387.721 44.3843C387.509 44.4265 387.289 44.4048 387.089 44.322C386.889 44.2392 386.719 44.099 386.598 43.9192C386.478 43.7393 386.414 43.5278 386.414 43.3115C386.414 43.0214 386.529 42.7432 386.734 42.5381C386.94 42.333 387.218 42.2178 387.508 42.2178ZM377.064 45.324L385.773 47.8639L386.241 48.3326C386.329 48.4191 386.447 48.4677 386.57 48.4678H389.695C389.82 48.4678 389.939 48.4184 390.027 48.3305C390.115 48.2426 390.164 48.1233 390.164 47.999C390.164 47.8747 390.115 47.7555 390.027 47.6676C389.939 47.5797 389.82 47.5303 389.695 47.5303H386.765L384.402 45.167C384.314 45.0792 384.195 45.0299 384.07 45.0299C383.946 45.0299 383.827 45.0792 383.739 45.167L382.866 46.0396L377.327 44.424C377.267 44.4068 377.206 44.4014 377.144 44.4081C377.083 44.4147 377.024 44.4334 376.97 44.463C376.916 44.4926 376.868 44.5326 376.83 44.5806C376.791 44.6286 376.763 44.6837 376.745 44.7428C376.728 44.8019 376.723 44.8638 376.729 44.925C376.736 44.9862 376.755 45.0454 376.784 45.0994C376.814 45.1534 376.854 45.201 376.902 45.2395C376.95 45.2781 377.005 45.3068 377.064 45.324ZM384.07 46.1615L384.394 46.485L383.893 46.3389L384.07 46.1615ZM392.455 54.4506C391.812 54.8807 391.081 55.1644 390.316 55.2817C389.551 55.399 388.769 55.347 388.026 55.1295L375.814 51.5732C375.755 51.556 375.7 51.5273 375.652 51.4888C375.604 51.4502 375.564 51.4026 375.534 51.3486C375.475 51.2396 375.461 51.1113 375.495 50.992C375.53 50.8726 375.611 50.772 375.72 50.7122C375.829 50.6525 375.957 50.6384 376.077 50.6732L382.102 52.4279L384.426 50.1084L380.816 49.0771C380.757 49.0602 380.702 49.0318 380.654 48.9935C380.605 48.9552 380.565 48.9078 380.535 48.854C380.475 48.7453 380.46 48.617 380.495 48.4975C380.529 48.3779 380.609 48.2768 380.718 48.2165C380.826 48.1561 380.955 48.1414 381.074 48.1756L385.449 49.4256C385.528 49.4481 385.599 49.4907 385.655 49.5491C385.712 49.6075 385.753 49.6796 385.773 49.7585C385.794 49.8374 385.793 49.9202 385.772 49.9988C385.751 50.0774 385.709 50.1491 385.652 50.2068L383.133 52.7271L388.289 54.2295C388.901 54.4087 389.544 54.4516 390.175 54.3551C390.805 54.2586 391.406 54.025 391.936 53.6709C392.04 53.6019 392.166 53.5769 392.288 53.6014C392.41 53.6258 392.518 53.6978 392.587 53.8014C392.656 53.905 392.681 54.0317 392.656 54.1538C392.632 54.2758 392.56 54.3832 392.456 54.4521L392.455 54.4506Z" fill="black" fill-opacity="0.88"/>
<path d="M427.89 53.4751C427.85 53.3572 427.766 53.2598 427.655 53.2043C427.543 53.1488 427.415 53.1397 427.297 53.179L425.805 53.6751L423.486 49.0392C423.447 48.9618 423.388 48.8966 423.315 48.8509C423.241 48.8051 423.157 48.7805 423.07 48.7798H416.664V46.5962C416.716 46.5962 416.768 46.5962 416.82 46.5962H421.195C421.32 46.5962 421.439 46.5468 421.527 46.4589C421.615 46.371 421.664 46.2518 421.664 46.1275C421.664 46.0031 421.615 45.8839 421.527 45.796C421.439 45.7081 421.32 45.6587 421.195 45.6587H416.82C416.768 45.6587 416.716 45.6587 416.664 45.6587V44.6704C417.233 44.5543 417.739 44.2309 418.083 43.7631C418.427 43.2953 418.586 42.7163 418.527 42.1385C418.469 41.5606 418.198 41.025 417.767 40.6354C417.336 40.2459 416.776 40.0303 416.195 40.0303C415.615 40.0303 415.054 40.2459 414.624 40.6354C414.193 41.025 413.922 41.5606 413.863 42.1385C413.805 42.7163 413.963 43.2953 414.308 43.7631C414.652 44.2309 415.157 44.5543 415.727 44.6704V45.7642C414.398 46.034 413.216 46.7881 412.412 47.8801C411.607 48.972 411.237 50.3238 411.374 51.6731C411.51 53.0225 412.143 54.273 413.149 55.182C414.156 56.091 415.464 56.5937 416.82 56.5923C419.369 56.5923 421.664 54.8673 422.274 52.4907C422.29 52.4311 422.293 52.3691 422.285 52.3081C422.276 52.2471 422.255 52.1885 422.224 52.1354C422.193 52.0824 422.151 52.0361 422.102 51.999C422.053 51.962 421.997 51.935 421.938 51.9196C421.878 51.9042 421.816 51.9008 421.755 51.9093C421.694 51.9179 421.635 51.9385 421.582 51.9697C421.529 52.001 421.483 52.0424 421.446 52.0916C421.409 52.1408 421.382 52.1967 421.366 52.2564C420.859 54.2259 418.945 55.6548 416.82 55.6548C415.714 55.6544 414.647 55.2495 413.818 54.5163C412.99 53.7832 412.459 52.7724 412.324 51.6745C412.19 50.5767 412.461 49.4675 413.088 48.5561C413.715 47.6447 414.653 46.994 415.727 46.7267V49.2485C415.727 49.3729 415.776 49.4921 415.864 49.58C415.952 49.6679 416.071 49.7173 416.195 49.7173H422.78L425.151 54.4579C425.201 54.5588 425.287 54.6381 425.391 54.6811C425.495 54.7242 425.612 54.7282 425.719 54.6923L427.594 54.0673C427.711 54.0279 427.809 53.9434 427.864 53.8324C427.92 53.7214 427.929 53.5929 427.89 53.4751ZM414.789 42.3735C414.789 42.0954 414.872 41.8235 415.026 41.5923C415.181 41.361 415.4 41.1808 415.657 41.0743C415.914 40.9679 416.197 40.9401 416.47 40.9943C416.742 41.0486 416.993 41.1825 417.19 41.3792C417.386 41.5758 417.52 41.8264 417.575 42.0992C417.629 42.372 417.601 42.6547 417.495 42.9117C417.388 43.1687 417.208 43.3883 416.977 43.5428C416.745 43.6973 416.473 43.7798 416.195 43.7798C415.822 43.7798 415.465 43.6316 415.201 43.3679C414.937 43.1042 414.789 42.7465 414.789 42.3735Z" fill="black" fill-opacity="0.88"/>
<path d="M8.29687 21.4922C8.29687 21.6041 8.25243 21.7114 8.17331 21.7905C8.09419 21.8696 7.98689 21.9141 7.875 21.9141H3.375C3.26311 21.9141 3.15581 21.8696 3.07669 21.7905C2.99757 21.7114 2.95313 21.6041 2.95312 21.4922V9.11719C2.95312 9.0053 2.99757 8.89799 3.07669 8.81888C3.15581 8.73976 3.26311 8.69531 3.375 8.69531H7.875C7.98689 8.69531 8.09419 8.73976 8.17331 8.81888C8.25243 8.89799 8.29687 9.0053 8.29687 9.11719C8.29687 9.22908 8.25243 9.33638 8.17331 9.4155C8.09419 9.49462 7.98689 9.53906 7.875 9.53906H3.79687V21.0703H7.875C7.98689 21.0703 8.09419 21.1148 8.17331 21.1939C8.25243 21.273 8.29687 21.3803 8.29687 21.4922ZM16.0481 15.0066L13.2356 12.1941C13.1557 12.1195 13.0499 12.079 12.9406 12.0809C12.8313 12.0828 12.727 12.1271 12.6497 12.2044C12.5724 12.2817 12.5281 12.386 12.5262 12.4953C12.5243 12.6046 12.5649 12.7103 12.6394 12.7903L14.7312 14.8828H7.875C7.76311 14.8828 7.65581 14.9273 7.57669 15.0064C7.49757 15.0855 7.45312 15.1928 7.45312 15.3047C7.45312 15.4166 7.49757 15.5239 7.57669 15.603C7.65581 15.6821 7.76311 15.7266 7.875 15.7266H14.7312L12.6394 17.8191C12.5979 17.8577 12.5647 17.9043 12.5416 17.956C12.5186 18.0078 12.5062 18.0636 12.5052 18.1203C12.5042 18.1769 12.5146 18.2332 12.5358 18.2857C12.557 18.3382 12.5886 18.386 12.6287 18.426C12.6687 18.4661 12.7164 18.4977 12.769 18.5189C12.8215 18.5401 12.8778 18.5505 12.9344 18.5495C12.9911 18.5485 13.0469 18.5361 13.0987 18.5131C13.1504 18.49 13.197 18.4568 13.2356 18.4153L16.0481 15.6028C16.1271 15.5237 16.1715 15.4165 16.1715 15.3047C16.1715 15.1929 16.1271 15.0857 16.0481 15.0066Z" fill="#232323"/>
<path d="M141.884 11.5634L138.742 8.42116C138.651 8.32975 138.542 8.25723 138.423 8.20775C138.303 8.15828 138.175 8.13281 138.046 8.13281C137.917 8.13281 137.789 8.15828 137.669 8.20775C137.55 8.25723 137.441 8.32975 137.35 8.42116L128.679 17.0914C128.587 17.1827 128.515 17.2912 128.465 17.4106C128.416 17.5301 128.39 17.6582 128.391 17.7875V20.9298C128.391 21.1908 128.494 21.4412 128.679 21.6258C128.864 21.8104 129.114 21.9141 129.375 21.9141H141.188C141.299 21.9141 141.407 21.8697 141.486 21.7906C141.565 21.7115 141.609 21.6041 141.609 21.4923C141.609 21.3804 141.565 21.2731 141.486 21.1939C141.407 21.1148 141.299 21.0704 141.188 21.0704H133.769L141.884 12.9556C141.976 12.8642 142.048 12.7557 142.098 12.6363C142.147 12.5168 142.173 12.3888 142.173 12.2595C142.173 12.1302 142.147 12.0022 142.098 11.8828C142.048 11.7634 141.976 11.6548 141.884 11.5634ZM132.576 21.0704H129.375C129.338 21.0704 129.302 21.0556 129.276 21.0292C129.249 21.0028 129.234 20.9671 129.234 20.9298V17.7875C129.235 17.7503 129.249 17.7146 129.276 17.6884L135.563 11.4017L138.904 14.7423L132.576 21.0704ZM141.287 12.3587L139.5 14.146L136.159 10.8048L137.946 9.01812C137.959 9.00504 137.975 8.99467 137.992 8.98759C138.009 8.98052 138.027 8.97687 138.046 8.97687C138.064 8.97687 138.082 8.98052 138.099 8.98759C138.117 8.99467 138.132 9.00504 138.145 9.01812L141.287 12.1597C141.3 12.1727 141.311 12.1883 141.318 12.2053C141.325 12.2224 141.329 12.2407 141.329 12.2592C141.329 12.2777 141.325 12.296 141.318 12.313C141.311 12.3301 141.3 12.3456 141.287 12.3587Z" fill="#343330"/>
<path d="M93 10.9453C92.4716 10.9453 91.955 11.102 91.5156 11.3956C91.0762 11.6892 90.7337 12.1065 90.5315 12.5947C90.3293 13.0829 90.2764 13.6202 90.3795 14.1384C90.4826 14.6567 90.737 15.1328 91.1107 15.5065C91.4844 15.8802 91.9605 16.1346 92.4787 16.2377C92.997 16.3408 93.5343 16.2879 94.0225 16.0857C94.5107 15.8835 94.928 15.541 95.2216 15.1016C95.5152 14.6622 95.6719 14.1456 95.6719 13.6172C95.6719 12.9086 95.3904 12.229 94.8893 11.7279C94.3882 11.2268 93.7086 10.9453 93 10.9453ZM93 15.4453C92.6384 15.4453 92.285 15.3381 91.9843 15.1372C91.6837 14.9363 91.4494 14.6508 91.311 14.3168C91.1727 13.9827 91.1365 13.6152 91.207 13.2605C91.2775 12.9059 91.4517 12.5802 91.7073 12.3245C91.963 12.0688 92.2887 11.8947 92.6434 11.8242C92.998 11.7537 93.3655 11.7899 93.6996 11.9282C94.0336 12.0666 94.3192 12.3009 94.52 12.6015C94.7209 12.9022 94.8281 13.2556 94.8281 13.6172C94.8281 14.102 94.6355 14.567 94.2927 14.9099C93.9498 15.2527 93.4848 15.4453 93 15.4453ZM93 7.57031C91.3968 7.57217 89.8599 8.20985 88.7263 9.34346C87.5927 10.4771 86.955 12.014 86.9531 13.6172C86.9531 15.7905 87.9614 18.0989 89.869 20.2927C90.73 21.2877 91.699 22.1838 92.7581 22.9645C92.829 23.0141 92.9135 23.0408 93 23.0408C93.0865 23.0408 93.171 23.0141 93.2419 22.9645C94.301 22.1838 95.27 21.2877 96.131 20.2927C98.0386 18.0989 99.0469 15.7927 99.0469 13.6172C99.045 12.014 98.4073 10.4771 97.2737 9.34346C96.1401 8.20985 94.6032 7.57217 93 7.57031ZM93 22.0905C91.9453 21.2763 87.7969 17.8092 87.7969 13.6172C87.7969 12.2372 88.3451 10.9138 89.3208 9.93802C90.2966 8.96225 91.62 8.41406 93 8.41406C94.38 8.41406 95.7034 8.96225 96.6792 9.93802C97.6549 10.9138 98.2031 12.2372 98.2031 13.6172C98.2031 17.8092 94.0547 21.2763 93 22.0905Z" fill="black" fill-opacity="0.88"/>
<path d="M57.75 9.82031H44.25C44.1381 9.82031 44.0308 9.86476 43.9517 9.94388C43.8726 10.023 43.8281 10.1303 43.8281 10.2422V19.8047C43.8281 20.0658 43.9318 20.3161 44.1164 20.5007C44.301 20.6854 44.5514 20.7891 44.8125 20.7891H57.1875C57.4486 20.7891 57.699 20.6854 57.8836 20.5007C58.0682 20.3161 58.1719 20.0658 58.1719 19.8047V10.2422C58.1719 10.1303 58.1274 10.023 58.0483 9.94388C57.9692 9.86476 57.8619 9.82031 57.75 9.82031ZM56.6658 10.6641L51 15.8573L45.3342 10.6641H56.6658ZM57.1875 19.9453H44.8125C44.7752 19.9453 44.7394 19.9305 44.7131 19.9041C44.6867 19.8778 44.6719 19.842 44.6719 19.8047V11.2012L50.7188 16.7405C50.7965 16.8116 50.8981 16.8511 51.0035 16.8511C51.1089 16.8511 51.2105 16.8116 51.2883 16.7405L57.3281 11.2012V19.8047C57.3281 19.842 57.3133 19.8778 57.2869 19.9041C57.2606 19.9305 57.2248 19.9453 57.1875 19.9453Z" fill="#343330"/>
<path d="M179.695 19.2011C176.159 19.2011 173.281 16.2254 173.28 12.5692C173.281 11.6423 174.011 10.8887 174.906 10.8887C174.998 10.8887 175.089 10.8967 175.176 10.9127C175.368 10.9457 175.55 11.0128 175.717 11.1139C175.741 11.1289 175.758 11.1529 175.762 11.1809L176.135 13.6161C176.14 13.6451 176.132 13.6731 176.113 13.6942C175.907 13.9304 175.644 14.1005 175.35 14.1856L175.209 14.2266L175.262 14.3678C175.744 15.6369 176.726 16.6508 177.954 17.1512L178.091 17.2073L178.131 17.0612C178.213 16.7579 178.378 16.4856 178.606 16.2725C178.622 16.2564 178.645 16.2484 178.667 16.2484C178.672 16.2484 178.677 16.2484 178.682 16.2494L181.038 16.6358C181.066 16.6408 181.089 16.6568 181.104 16.6818C181.201 16.855 181.265 17.0441 181.298 17.2423C181.314 17.3304 181.321 17.4235 181.321 17.5206C181.321 18.4464 180.592 19.2001 179.695 19.2011Z" fill="#232323"/>
<path d="M185.966 14.2207C185.775 11.9927 184.788 9.92591 183.186 8.40155C181.574 6.86819 179.483 6.02344 177.296 6.02344C172.496 6.02344 168.591 10.061 168.591 15.0234C168.591 16.6889 169.035 18.3114 169.876 19.7246L168 24.0184L174.007 23.3568C175.052 23.7992 176.157 24.0234 177.295 24.0234C177.594 24.0234 177.901 24.0074 178.209 23.9744C178.48 23.9444 178.754 23.9003 179.023 23.8443C183.042 23.0045 185.977 19.3163 186 15.0715V15.0234C186 14.7532 185.988 14.483 185.965 14.2207H185.966ZM174.238 21.4722L170.915 21.8385L171.907 19.5655L171.709 19.2902C171.694 19.2702 171.68 19.2502 171.663 19.2272C170.802 17.9971 170.347 16.5438 170.347 15.0244C170.347 11.0629 173.464 7.84005 177.296 7.84005C180.885 7.84005 183.928 10.7356 184.222 14.4319C184.237 14.6301 184.246 14.8293 184.246 15.0254C184.246 15.0815 184.245 15.1365 184.244 15.1956C184.17 18.5095 181.931 21.324 178.798 22.0407C178.559 22.0957 178.314 22.1378 178.07 22.1648C177.817 22.1948 177.556 22.2098 177.298 22.2098C176.377 22.2098 175.482 22.0257 174.637 21.6613C174.543 21.6223 174.451 21.5803 174.365 21.5372L174.239 21.4742L174.238 21.4722Z" fill="#232323"/>
<path opacity="0.587821" d="M297.194 10.2227C299.182 10.2227 300.793 11.8342 300.794 13.8223C300.794 15.8105 299.182 17.4229 297.194 17.4229C295.206 17.4228 293.594 15.8105 293.594 13.8223C293.595 11.8342 295.206 10.2227 297.194 10.2227ZM286.393 4.22266C289.044 4.22266 291.194 6.37167 291.194 9.02246C291.194 11.6734 289.044 13.8232 286.393 13.8232C283.742 13.823 281.593 11.6733 281.593 9.02246C281.594 6.37181 283.743 4.22289 286.393 4.22266Z" fill="#8280FF"/>
<path d="M296.715 18.625C300.803 18.6698 304.14 20.7358 304.392 25.1035C304.402 25.2801 304.39 25.8231 303.74 25.8232H299.113V25.8223C299.113 23.1218 298.22 20.6302 296.715 18.625ZM286.373 16.2227C292.118 16.2227 296.84 18.9744 297.191 24.8623C297.205 25.0969 297.191 25.8223 296.289 25.8223H276.467C276.166 25.8223 275.569 25.1733 275.595 24.8613C276.06 19.1346 280.708 16.2228 286.373 16.2227Z" fill="#8280FF"/>
<path fill-rule="evenodd" clip-rule="evenodd" d="M412.393 10.1846L424.004 16.8879C424.129 16.96 424.26 17.0122 424.393 17.0453V30.046L413.221 23.4344C412.708 23.1307 412.393 22.5786 412.393 21.9822V10.1846ZM439.393 10.0059V21.9817C439.393 22.578 439.079 23.1302 438.565 23.4339L427.393 30.0455V16.9309C427.421 16.9173 427.448 16.9028 427.474 16.8874L439.393 10.0059Z" fill="#3676BC"/>
<path opacity="0.499209" fill-rule="evenodd" clip-rule="evenodd" d="M412.758 6.93128C412.9 6.75219 413.079 6.60084 413.287 6.48968L425.1 0.19809C425.596 -0.0660299 426.191 -0.0660299 426.687 0.19809L438.499 6.48968C438.66 6.57537 438.803 6.68494 438.925 6.81269L425.974 14.29C425.889 14.3392 425.81 14.3955 425.739 14.4576C425.667 14.3955 425.589 14.3392 425.504 14.29L412.758 6.93128Z" fill="#3676BC"/>
<path d="M232.844 8.77246H237.844M232.844 18.7725H236.594M232.844 13.7725H240.344M245.344 13.7725V11.2725C245.344 7.73746 245.344 5.96871 244.245 4.87121C243.148 3.77246 241.379 3.77246 237.844 3.77246H235.344C231.809 3.77246 230.04 3.77246 228.943 4.87121C227.844 5.96871 227.844 7.73746 227.844 11.2725V18.7725C227.844 22.3075 227.844 24.0762 228.943 25.1737C230.04 26.2725 231.809 26.2725 235.344 26.2725H236.594" stroke="#FA8C16" stroke-opacity="0.5" stroke-width="2" stroke-linecap="round"/>
<path d="M243.561 25.4899C245.713 25.4899 247.458 23.745 247.458 21.5926C247.458 19.4402 245.713 17.6953 243.561 17.6953C241.408 17.6953 239.664 19.4402 239.664 21.5926C239.664 23.745 241.408 25.4899 243.561 25.4899Z" stroke="#FA8C16" stroke-width="2" stroke-linecap="round"/>
<path d="M249.018 27.0493L246.679 24.7109" stroke="#FA8C16" stroke-width="2" stroke-linecap="round"/>
<path d="M466.193 24.8229H487.193C487.967 24.8229 488.593 25.4497 488.593 26.2229C488.593 26.9961 487.967 27.6229 487.193 27.6229H464.793C464.02 27.6229 463.393 26.9961 463.393 26.2229V3.82285C463.393 3.04965 464.02 2.42285 464.793 2.42285C465.567 2.42285 466.193 3.04965 466.193 3.82285V24.8229Z" fill="#8CC43D"/>
<path opacity="0.5" d="M471.415 18.7798C470.886 19.3439 470 19.3725 469.436 18.8437C468.872 18.3149 468.844 17.4289 469.373 16.8648L474.623 11.2648C475.134 10.7193 475.984 10.672 476.553 11.1574L480.696 14.6933L486.095 7.85482C486.574 7.24795 487.455 7.14438 488.061 7.62349C488.668 8.1026 488.772 8.98295 488.293 9.58982L481.993 17.5698C481.501 18.1931 480.589 18.2828 479.985 17.7673L475.751 14.1546L471.415 18.7798Z" fill="#8CC43D"/>
<path d="M342.456 7.85059H333.456C333.195 7.85059 332.944 7.9543 332.76 8.1389C332.575 8.32351 332.471 8.57389 332.471 8.83496V10.6631H331.206C330.945 10.6631 330.694 10.7668 330.51 10.9514C330.325 11.136 330.221 11.3864 330.221 11.6475V18.3975C330.221 18.6585 330.325 18.9089 330.51 19.0935C330.694 19.2781 330.945 19.3818 331.206 19.3818H332.471V21.21C332.471 21.471 332.575 21.7214 332.76 21.906C332.944 22.0906 333.195 22.1943 333.456 22.1943H342.456C342.717 22.1943 342.967 22.0906 343.152 21.906C343.336 21.7214 343.44 21.471 343.44 21.21V8.83496C343.44 8.57389 343.336 8.32351 343.152 8.1389C342.967 7.9543 342.717 7.85059 342.456 7.85059ZM339.503 13.1943H342.596V16.8506H339.503V13.1943ZM342.596 8.83496V12.3506H339.503V11.6475C339.503 11.3864 339.399 11.136 339.214 10.9514C339.03 10.7668 338.779 10.6631 338.518 10.6631H338.378V8.69434H342.456C342.493 8.69434 342.529 8.70915 342.555 8.73552C342.581 8.7619 342.596 8.79766 342.596 8.83496ZM333.315 8.83496C333.315 8.79766 333.33 8.7619 333.356 8.73552C333.383 8.70915 333.418 8.69434 333.456 8.69434H337.534V10.6631H333.315V8.83496ZM331.065 18.3975V11.6475C331.065 11.6102 331.08 11.5744 331.106 11.548C331.133 11.5217 331.168 11.5068 331.206 11.5068H338.518C338.555 11.5068 338.591 11.5217 338.618 11.548C338.644 11.5744 338.659 11.6102 338.659 11.6475V18.3975C338.659 18.4348 338.644 18.4705 338.618 18.4969C338.591 18.5233 338.555 18.5381 338.518 18.5381H331.206C331.168 18.5381 331.133 18.5233 331.106 18.4969C331.08 18.4705 331.065 18.4348 331.065 18.3975ZM333.315 21.21V19.3818H337.534V21.3506H333.456C333.418 21.3506 333.383 21.3358 333.356 21.3094C333.33 21.283 333.315 21.2473 333.315 21.21ZM342.456 21.3506H338.378V19.3818H338.518C338.779 19.3818 339.03 19.2781 339.214 19.0935C339.399 18.9089 339.503 18.6585 339.503 18.3975V17.6943H342.596V21.21C342.596 21.2473 342.581 21.283 342.555 21.3094C342.529 21.3358 342.493 21.3506 342.456 21.3506ZM333.132 16.44L334.313 15.0225L333.132 13.605C333.096 13.5625 333.068 13.5133 333.051 13.4602C333.035 13.4071 333.028 13.3512 333.033 13.2958C333.038 13.2403 333.054 13.1863 333.08 13.137C333.105 13.0876 333.141 13.0439 333.184 13.0082C333.226 12.9726 333.276 12.9458 333.329 12.9293C333.382 12.9129 333.438 12.9071 333.493 12.9124C333.549 12.9177 333.603 12.9339 333.652 12.96C333.701 12.9862 333.745 13.0219 333.78 13.065L334.862 14.3636L335.944 13.065C336.016 12.98 336.119 12.9269 336.229 12.9173C336.34 12.9076 336.451 12.9422 336.536 13.0134C336.622 13.0846 336.675 13.1868 336.686 13.2976C336.697 13.4084 336.663 13.5189 336.592 13.605L335.411 15.0225L336.592 16.44C336.628 16.4825 336.656 16.5317 336.672 16.5847C336.689 16.6378 336.695 16.6937 336.691 16.7492C336.686 16.8046 336.67 16.8586 336.644 16.908C336.618 16.9573 336.583 17.0011 336.54 17.0367C336.498 17.0723 336.448 17.0992 336.395 17.1156C336.342 17.1321 336.286 17.1378 336.23 17.1325C336.175 17.1273 336.121 17.1111 336.072 17.0849C336.023 17.0587 335.979 17.023 335.944 16.98L334.862 15.6813L333.78 16.98C333.708 17.0649 333.605 17.118 333.494 17.1277C333.384 17.1373 333.273 17.1028 333.188 17.0315C333.102 16.9603 333.048 16.8581 333.038 16.7473C333.027 16.6365 333.061 16.526 333.132 16.44Z" fill="#3676BC"/>
<path d="M386.893 10.8975H382.393" stroke="#232323" stroke-width="1.125" stroke-miterlimit="10" stroke-linecap="round" stroke-linejoin="round"/>
<path d="M374.893 10.8975H371.893" stroke="#232323" stroke-width="1.125" stroke-miterlimit="10" stroke-linecap="round" stroke-linejoin="round"/>
<path d="M377.893 13.5225C379.343 13.5225 380.518 12.3472 380.518 10.8975C380.518 9.44771 379.343 8.27246 377.893 8.27246C376.443 8.27246 375.268 9.44771 375.268 10.8975C375.268 12.3472 376.443 13.5225 377.893 13.5225Z" stroke="#232323" stroke-width="1.125" stroke-miterlimit="10" stroke-linecap="round" stroke-linejoin="round"/>
<path d="M386.893 19.1475H383.893" stroke="#232323" stroke-width="1.125" stroke-miterlimit="10" stroke-linecap="round" stroke-linejoin="round"/>
<path d="M376.393 19.1475H371.893" stroke="#232323" stroke-width="1.125" stroke-miterlimit="10" stroke-linecap="round" stroke-linejoin="round"/>
<path d="M380.893 21.7725C382.343 21.7725 383.518 20.5972 383.518 19.1475C383.518 17.6977 382.343 16.5225 380.893 16.5225C379.443 16.5225 378.268 17.6977 378.268 19.1475C378.268 20.5972 379.443 21.7725 380.893 21.7725Z" stroke="#232323" stroke-width="1.125" stroke-miterlimit="10" stroke-linecap="round" stroke-linejoin="round"/>
<defs>
<clipPath id="clip0_5001_48378">
<rect width="20" height="20" fill="white" transform="translate(0.0703125 38.624)"/>
</clipPath>
</defs>
</svg>
