<svg width="17" height="17" viewBox="0 0 17 17" fill="none" xmlns="http://www.w3.org/2000/svg">
<path d="M1.05594 11.4722L13.8725 6.75002L1.05594 2.02783C0.915953 1.97624 0.802197 1.87115 0.739695 1.73569C0.677192 1.60022 0.671063 1.44547 0.722656 1.30549C0.774249 1.1655 0.879337 1.05175 1.0148 0.989246C1.15027 0.926743 1.30502 0.920614 1.445 0.972207L15.695 6.22221C15.803 6.26199 15.8961 6.33392 15.9619 6.42829C16.0277 6.52267 16.063 6.63496 16.063 6.75002C16.063 6.86508 16.0277 6.97737 15.9619 7.07175C15.8961 7.16612 15.803 7.23805 15.695 7.27783L1.445 12.5278C1.38252 12.5507 1.31652 12.5624 1.25 12.5625C1.11798 12.5624 0.990202 12.5159 0.889033 12.4311C0.787863 12.3463 0.719749 12.2286 0.696615 12.0986C0.673481 11.9686 0.6968 11.8346 0.762492 11.7201C0.828183 11.6056 0.93206 11.5178 1.05594 11.4722ZM15.5 15.1875H1.25C1.10082 15.1875 0.957742 15.2468 0.852252 15.3523C0.746763 15.4578 0.6875 15.6008 0.6875 15.75C0.6875 15.8992 0.746763 16.0423 0.852252 16.1478C0.957742 16.2533 1.10082 16.3125 1.25 16.3125H15.5C15.6492 16.3125 15.7923 16.2533 15.8977 16.1478C16.0032 16.0423 16.0625 15.8992 16.0625 15.75C16.0625 15.6008 16.0032 15.4578 15.8977 15.3523C15.7923 15.2468 15.6492 15.1875 15.5 15.1875Z" fill="#343330"/>
</svg>
