<svg width="14" height="17" viewBox="0 0 14 17" fill="none" xmlns="http://www.w3.org/2000/svg">
<path d="M12.3695 2.37378C10.4771 0.481365 7.39543 0.481365 5.50503 2.37378L0.261723 7.61306C0.227572 7.64721 0.209491 7.69342 0.209491 7.74163C0.209491 7.78985 0.227572 7.83605 0.261723 7.8702L1.00302 8.6115C1.0369 8.64524 1.08277 8.66418 1.13059 8.66418C1.1784 8.66418 1.22427 8.64524 1.25815 8.6115L6.50146 3.37221C7.15235 2.72132 8.0182 2.36373 8.93829 2.36373C9.85838 2.36373 10.7242 2.72132 11.3731 3.37221C12.024 4.02311 12.3816 4.88895 12.3816 5.80703C12.3816 6.72712 12.024 7.59096 11.3731 8.24186L6.02936 13.5836L5.16351 14.4494C4.35391 15.259 3.03806 15.259 2.22846 14.4494C1.83672 14.0577 1.62177 13.5374 1.62177 12.9829C1.62177 12.4285 1.83672 11.9082 2.22846 11.5164L7.53003 6.21686C7.66463 6.08427 7.84141 6.00994 8.03025 6.00994H8.03226C8.2211 6.00994 8.39587 6.08427 8.52846 6.21686C8.66306 6.35145 8.73538 6.52824 8.73538 6.71708C8.73538 6.90391 8.66105 7.0807 8.52846 7.21328L4.19521 11.5425C4.16105 11.5767 4.14297 11.6229 4.14297 11.6711C4.14297 11.7193 4.16105 11.7655 4.19521 11.7997L4.9365 12.541C4.97038 12.5747 5.01625 12.5936 5.06407 12.5936C5.11188 12.5936 5.15775 12.5747 5.19163 12.541L9.52288 8.20971C9.92266 7.80994 10.1416 7.27958 10.1416 6.71507C10.1416 6.15056 9.92065 5.6182 9.52288 5.22043C8.69721 4.39476 7.35525 4.39677 6.52958 5.22043L6.0153 5.73672L1.23003 10.52C0.905245 10.8429 0.647796 11.227 0.472611 11.6501C0.297426 12.0733 0.207991 12.527 0.209491 12.9849C0.209491 13.9151 0.573107 14.789 1.23003 15.4459C1.91105 16.1249 2.80302 16.4644 3.69498 16.4644C4.58695 16.4644 5.47891 16.1249 6.15793 15.4459L12.3695 9.23829C13.2836 8.32221 13.7898 7.10279 13.7898 5.80703C13.7919 4.50927 13.2856 3.28985 12.3695 2.37378Z" fill="black" fill-opacity="0.65"/>
</svg>
