<svg width="14" height="14" viewBox="0 0 14 14" fill="none" xmlns="http://www.w3.org/2000/svg">
<path d="M5.79687 13.1875C5.79687 13.2994 5.75243 13.4067 5.67331 13.4858C5.59419 13.5649 5.48689 13.6094 5.375 13.6094H0.875C0.763112 13.6094 0.655806 13.5649 0.576689 13.4858C0.497572 13.4067 0.453125 13.2994 0.453125 13.1875V0.8125C0.453125 0.700612 0.497572 0.593306 0.576689 0.514189C0.655806 0.435072 0.763112 0.390625 0.875 0.390625H5.375C5.48689 0.390625 5.59419 0.435072 5.67331 0.514189C5.75243 0.593306 5.79687 0.700612 5.79687 0.8125C5.79687 0.924388 5.75243 1.03169 5.67331 1.11081C5.59419 1.18993 5.48689 1.23438 5.375 1.23438H1.29687V12.7656H5.375C5.48689 12.7656 5.59419 12.8101 5.67331 12.8892C5.75243 12.9683 5.79687 13.0756 5.79687 13.1875ZM13.5481 6.70188L10.7356 3.88938C10.6557 3.81486 10.5499 3.77429 10.4406 3.77621C10.3313 3.77814 10.227 3.82242 10.1497 3.89971C10.0724 3.97701 10.0281 4.08129 10.0262 4.19058C10.0243 4.29988 10.0649 4.40565 10.1394 4.48562L12.2312 6.57812H5.375C5.26311 6.57812 5.15581 6.62257 5.07669 6.70169C4.99757 6.78081 4.95312 6.88811 4.95312 7C4.95312 7.11189 4.99757 7.21919 5.07669 7.29831C5.15581 7.37743 5.26311 7.42188 5.375 7.42188H12.2312L10.1394 9.51437C10.0979 9.553 10.0647 9.59957 10.0416 9.65132C10.0186 9.70307 10.0062 9.75894 10.0052 9.81558C10.0042 9.87223 10.0146 9.92849 10.0358 9.98102C10.057 10.0336 10.0886 10.0813 10.1287 10.1213C10.1687 10.1614 10.2164 10.193 10.269 10.2142C10.3215 10.2354 10.3778 10.2458 10.4344 10.2448C10.4911 10.2438 10.5469 10.2314 10.5987 10.2084C10.6504 10.1853 10.697 10.1521 10.7356 10.1106L13.5481 7.29813C13.6271 7.21902 13.6715 7.1118 13.6715 7C13.6715 6.8882 13.6271 6.78098 13.5481 6.70188Z" fill="#F7F7F7"/>
</svg>
