<svg width="36" height="36" viewBox="0 0 36 36" fill="none" xmlns="http://www.w3.org/2000/svg">
<path d="M35.0084 15.041L35.0105 15.0498L35.0131 15.0585C35.0554 15.205 35.0704 15.364 35.056 15.54L35.0525 15.583L35.0564 15.6259C35.0586 15.6503 35.059 15.6867 35.059 15.7541L35.059 32.9042C35.059 32.9046 35.059 32.905 35.059 32.9053C35.0545 34.2004 33.9978 35.2557 32.7044 35.2557H3.30518C2.68201 35.2546 2.08467 35.0066 1.64402 34.566C1.20347 34.1254 0.955478 33.5282 0.954355 32.9052V15.7541C0.954355 15.6973 0.957905 15.6379 0.962757 15.5603L0.965954 15.5091L0.958705 15.4584C0.93649 15.3029 0.948023 15.1364 0.993886 14.9636L0.993936 14.9636L0.995335 14.958L0.998443 14.9507L1.00271 14.9393L5.9199 1.71113L5.92596 1.69483L5.93087 1.67816C6.09324 1.12676 6.60584 0.743164 7.18092 0.743164H28.4997C29.0706 0.743164 29.5771 1.11875 29.7472 1.66646L29.7526 1.68409L29.7594 1.70127L35.0069 15.0351L35.0084 15.041ZM4.29506 12.7139L4.01121 13.4041H4.75748H13.9138L13.9185 13.649C13.9392 14.8 14.331 15.8129 15.08 16.5509C15.8305 17.2905 16.8548 17.6604 17.9997 17.6604C19.1749 17.6604 20.1997 17.2666 20.9378 16.5476C21.6762 15.8284 22.0927 14.8177 22.1136 13.6496C22.1136 13.6494 22.1136 13.6492 22.1136 13.6489L22.1183 13.4041H31.0262H31.7804L31.4868 12.7094L27.6571 3.64851L27.528 3.34316H27.1965H8.48404H8.14905L8.02163 3.65298L4.29506 12.7139ZM4.04967 16.0041H3.54967V16.5041V32.1557V32.6557H4.04967H31.9497H32.4497V32.1557V16.5041V16.0041H31.9497H24.6137H24.2837L24.154 16.3076C23.6631 17.4558 22.9094 18.4019 21.9497 19.0763L21.9495 19.0764C20.8557 19.8459 19.4912 20.2604 18.0044 20.2604C15.1787 20.2604 12.9409 18.7937 11.8832 16.3083L11.7537 16.0041H11.4231H4.04967Z" fill="#3676BC" stroke="#3676BC"/>
</svg>
