<svg width="18" height="16" viewBox="0 0 18 16" fill="none" xmlns="http://www.w3.org/2000/svg">
<path d="M17.8125 7.78431C17.8125 7.93349 17.7532 8.07657 17.6477 8.18206C17.5423 8.28755 17.3992 8.34681 17.25 8.34681H2.10843L7.89749 14.1368C7.95276 14.1883 7.99708 14.2504 8.02783 14.3194C8.05857 14.3884 8.0751 14.4629 8.07644 14.5384C8.07777 14.6139 8.06388 14.689 8.03558 14.759C8.00729 14.829 7.96519 14.8927 7.91177 14.9461C7.85836 14.9995 7.79473 15.0416 7.72469 15.0699C7.65465 15.0982 7.57963 15.1121 7.5041 15.1108C7.42857 15.1094 7.35409 15.0929 7.28509 15.0621C7.21609 15.0314 7.15399 14.9871 7.10249 14.9318L0.352493 8.18181C0.247155 8.07634 0.187988 7.93337 0.187988 7.78431C0.187988 7.63525 0.247155 7.49228 0.352493 7.38681L7.10249 0.636809C7.20912 0.537449 7.35016 0.483356 7.49588 0.485927C7.64161 0.488499 7.78065 0.547532 7.88371 0.650592C7.98677 0.753652 8.0458 0.892691 8.04837 1.03842C8.05095 1.18414 7.99685 1.32518 7.89749 1.43181L2.10843 7.22181H17.25C17.3992 7.22181 17.5423 7.28107 17.6477 7.38656C17.7532 7.49205 17.8125 7.63512 17.8125 7.78431Z" fill="#232323"/>
</svg>
