<svg width="14" height="14" viewBox="0 0 14 14" fill="none" xmlns="http://www.w3.org/2000/svg">
<path fill-rule="evenodd" clip-rule="evenodd" d="M6.99984 12.8333C10.2215 12.8333 12.8332 10.2217 12.8332 6.99999C12.8332 3.77833 10.2215 1.16666 6.99984 1.16666C3.77818 1.16666 1.1665 3.77833 1.1665 6.99999C1.1665 10.2217 3.77818 12.8333 6.99984 12.8333Z" stroke="black"/>
<path fill-rule="evenodd" clip-rule="evenodd" d="M6.99984 12.25C6.99984 12.25 9.33317 10.3409 9.33317 7C9.33317 3.65909 6.99984 1.75 6.99984 1.75C6.99984 1.75 4.6665 3.65909 4.6665 7C4.6665 10.3409 6.99984 12.25 6.99984 12.25Z" stroke="black"/>
<path d="M1.45817 5.24999H12.5415" stroke="black" stroke-linecap="round"/>
<path d="M1.45817 8.74999H12.5415" stroke="black" stroke-linecap="round"/>
</svg>
